<?xml version="1.0" encoding="UTF-8" standalone="no"?>
<!-- Created with Inkscape (http://www.inkscape.org/) -->

<svg
   width="94.401184mm"
   height="94.401184mm"
   viewBox="0 0 94.401184 94.401184"
   version="1.1"
   id="svg59943"
   inkscape:version="1.1.2 (0a00cf5339, 2022-02-04)"
   sodipodi:docname="flowintel.svg"
   xmlns:inkscape="http://www.inkscape.org/namespaces/inkscape"
   xmlns:sodipodi="http://sodipodi.sourceforge.net/DTD/sodipodi-0.dtd"
   xmlns="http://www.w3.org/2000/svg"
   xmlns:svg="http://www.w3.org/2000/svg">
  <sodipodi:namedview
     id="namedview59945"
     pagecolor="#ffffff"
     bordercolor="#666666"
     borderopacity="1.0"
     inkscape:pageshadow="2"
     inkscape:pageopacity="0.0"
     inkscape:pagecheckerboard="0"
     inkscape:document-units="mm"
     showgrid="false"
     fit-margin-top="0"
     fit-margin-left="0"
     fit-margin-right="0"
     fit-margin-bottom="0"
     inkscape:zoom="0.64052329"
     inkscape:cx="102.26014"
     inkscape:cy="537.84149"
     inkscape:window-width="1850"
     inkscape:window-height="1136"
     inkscape:window-x="70"
     inkscape:window-y="27"
     inkscape:window-maximized="1"
     inkscape:current-layer="layer1" />
  <defs
     id="defs59940" />
  <g
     inkscape:label="Layer 1"
     inkscape:groupmode="layer"
     id="layer1"
     transform="translate(-29.218044,-6.2072234)">
    <text
       xml:space="preserve"
       style="font-style:normal;font-variant:normal;font-weight:bold;font-stretch:normal;font-size:24.0366px;line-height:1.25;font-family:'Gillius ADF';-inkscape-font-specification:'Gillius ADF, Bold';font-variant-ligatures:normal;font-variant-caps:normal;font-variant-numeric:normal;font-variant-east-asian:normal;fill:#241f31;fill-opacity:0.65098;stroke:none;stroke-width:0.600912"
       x="31.145821"
       y="98.182213"
       id="text6911"
       inkscape:export-filename="/home/adulau/git/flowintel-logos/new/flowintel-400dpi.png"
       inkscape:export-xdpi="400"
       inkscape:export-ydpi="400"><tspan
         sodipodi:role="line"
         id="tspan6909"
         x="31.145821"
         y="98.182213"
         style="font-style:normal;font-variant:normal;font-weight:bold;font-stretch:normal;font-size:24.0366px;font-family:'Gillius ADF';-inkscape-font-specification:'Gillius ADF, Bold';font-variant-ligatures:normal;font-variant-caps:normal;font-variant-numeric:normal;font-variant-east-asian:normal;fill:#241f31;fill-opacity:0.65098;stroke-width:0.600912">flowintel</tspan></text>
    <path
       fill-rule="evenodd"
       clip-rule="evenodd"
       d="m 104.40599,46.846765 c 1.41354,-1.038764 1.71737,-3.026625 0.67861,-4.440161 -1.03875,-1.413545 -3.02663,-1.717353 -4.44017,-0.678606 -1.413564,1.038729 -1.717361,3.026607 -0.678617,4.440161 1.038747,1.413536 3.026627,1.717352 4.440177,0.678606 z m -9.55893,3.08294 c -2.456637,-3.343078 -2.410207,-7.757382 -0.202507,-11.00281 l -0.32088,-0.436996 c -3.11628,-4.240626 -9.07982,-5.152066 -13.320464,-2.035827 -2.880843,2.117006 -6.238727,3.118723 -9.55817,3.083959 l 7.843389,10.673372 c 3.7567,-1.137503 7.983372,0.136631 10.440025,3.4797 3.11626,4.240644 2.20482,10.204209 -2.035822,13.320457 -4.240616,3.116256 -10.204199,2.204807 -13.320455,-2.035828 -2.45665,-3.343042 -2.410228,-7.757372 -0.202507,-11.002809 l -7.8434,-10.673363 c -0.958307,3.17828 -2.917253,6.083664 -5.79811,8.20067 -4.240484,3.116187 -5.152073,9.079822 -2.035816,13.32044 l 0.320887,0.437022 c 3.756673,-1.137512 7.983365,0.13664 10.440045,3.479717 3.116224,4.240635 2.204665,10.20427 -2.035847,13.32044 C 62.976947,85.174018 57.01323,84.262648 53.89699,80.022013 51.440345,76.678944 51.486769,72.264631 53.694485,69.019229 l -0.320893,-0.437013 c -5.193573,-7.067464 -3.674497,-17.007143 3.393032,-22.200753 4.24049,-3.116161 5.151975,-9.079935 2.035815,-13.320448 l -0.321227,-0.436787 c -3.756721,1.137415 -7.983302,-0.136562 -10.440013,-3.479692 -3.116153,-4.240486 -2.204796,-10.2042 2.035838,-13.320448 4.240625,-3.116257 10.204294,-2.204669 13.32046,2.035845 2.456685,3.343104 2.410072,7.757251 0.202484,11.002749 l 0.320913,0.437031 c 3.116122,4.240495 9.079812,5.152058 13.320447,2.035827 7.067463,-5.193575 17.007192,-3.67445 22.200745,3.393031 l 0.321067,0.436892 c 3.756697,-1.137521 7.983387,0.136631 10.440047,3.479708 3.11623,4.240618 2.20479,10.2042 -2.03584,13.32044 -4.24064,3.11623 -10.204228,2.204825 -13.32044,-2.03581 z M 57.600133,26.061631 c 1.413541,-1.038755 1.717319,-3.026659 0.678612,-4.440161 -1.038717,-1.413484 -3.026604,-1.717361 -4.440158,-0.678606 -1.413545,1.038738 -1.717322,3.026642 -0.678599,4.440153 1.038701,1.413484 3.026596,1.717361 4.440145,0.678614 z m 2.094219,45.758718 c -1.413479,1.038703 -1.717349,3.02659 -0.678604,4.440153 1.038748,1.413536 3.026652,1.7173 4.440141,0.678606 1.413511,-1.038721 1.717359,-3.026616 0.678613,-4.440161 -1.038747,-1.413545 -3.026649,-1.717318 -4.44015,-0.678598 z m 24.91521,-14.367561 c 1.038737,1.413537 0.73493,3.401398 -0.678615,4.440135 -1.413536,1.038755 -3.401406,0.73493 -4.440161,-0.678606 -1.038747,-1.413545 -0.73493,-3.401397 0.678606,-4.440143 1.413545,-1.038747 3.401397,-0.734931 4.44017,0.678614 z"
       fill="#000000"
       id="path12699-1"
       style="fill:#1a5fb4;fill-opacity:0.409138;stroke-width:3.17612"
       inkscape:export-filename="/home/adulau/git/flowintel-logos/new/flowintel-400dpi.png"
       inkscape:export-xdpi="400"
       inkscape:export-ydpi="400" />
    <path
       fill-rule="evenodd"
       clip-rule="evenodd"
       d="m 104.5789,46.904139 c 1.41354,-1.03877 1.71737,-3.02663 0.67861,-4.44016 -1.03875,-1.41355 -3.02662,-1.71736 -4.44017,-0.67861 -1.413544,1.03873 -1.717354,3.02661 -0.67861,4.44016 1.03875,1.41354 3.02662,1.71735 4.44017,0.67861 z m -9.558928,3.08294 c -2.45665,-3.34308 -2.41022,-7.75738 -0.20252,-11.00281 l -0.32088,-0.437 c -3.11628,-4.24062 -9.07982,-5.15206 -13.32046,-2.03582 -2.88085,2.117 -6.23873,3.11872 -9.55817,3.08395 l 7.84338,10.67338 c 3.7567,-1.13751 7.98338,0.13663 10.44003,3.4797 3.11626,4.24064 2.20482,10.20421 -2.03582,13.32045 -4.24062,3.11626 -10.2042,2.20481 -13.32046,-2.03582 -2.45665,-3.34305 -2.41023,-7.75738 -0.2025,-11.00281 l -7.8434,-10.67337 c -0.95831,3.17828 -2.91726,6.08367 -5.798115,8.20067 -4.240484,3.11619 -5.152073,9.07983 -2.035816,13.32044 l 0.320887,0.43703 c 3.756674,-1.13752 7.983364,0.13664 10.440044,3.47971 3.11623,4.24064 2.20467,10.20427 -2.03585,13.32044 -4.24048,3.11617 -10.204194,2.2048 -13.320434,-2.03583 -2.456645,-3.34307 -2.410221,-7.75739 -0.202505,-11.00279 l -0.320893,-0.43701 c -5.193573,-7.06746 -3.674497,-17.00714 3.393032,-22.20075 4.24049,-3.11616 5.151975,-9.07994 2.035815,-13.32045 l -0.321227,-0.43679 c -3.756721,1.13742 -7.983302,-0.13656 -10.440013,-3.47969 -3.116153,-4.24049 -2.204796,-10.2042 2.035838,-13.32045 4.240625,-3.116255 10.204294,-2.204667 13.320457,2.03585 2.45669,3.3431 2.41008,7.75725 0.20249,11.00275 l 0.32091,0.43703 c 3.11612,4.24049 9.07981,5.15205 13.32045,2.03582 7.06746,-5.19357 17.00719,-3.67445 22.200761,3.39303 l 0.32106,0.4369 c 3.756697,-1.13752 7.983387,0.13663 10.440047,3.4797 3.11623,4.24062 2.20479,10.2042 -2.03584,13.32044 -4.24064,3.11623 -10.204218,2.20483 -13.320448,-2.03581 z M 57.773031,26.118999 c 1.413541,-1.03875 1.717319,-3.02665 0.678612,-4.44016 -1.038717,-1.41348 -3.026604,-1.71736 -4.440158,-0.6786 -1.413545,1.03874 -1.717322,3.02664 -0.678599,4.44015 1.038701,1.41348 3.026596,1.71736 4.440145,0.67861 z m 2.094219,45.75872 c -1.413479,1.03871 -1.717349,3.02659 -0.678604,4.44016 1.038748,1.41353 3.026652,1.7173 4.440146,0.6786 1.41351,-1.03872 1.71735,-3.02661 0.67861,-4.44016 -1.03875,-1.41354 -3.026651,-1.71732 -4.440152,-0.6786 z m 24.915212,-14.36756 c 1.03874,1.41354 0.73493,3.4014 -0.67862,4.44014 -1.41353,1.03875 -3.4014,0.73493 -4.44016,-0.67861 -1.03874,-1.41354 -0.73493,-3.4014 0.67861,-4.44014 1.41354,-1.03875 3.4014,-0.73493 4.44017,0.67861 z"
       fill="#000000"
       id="path12699-1-1"
       style="fill:#241f31;fill-opacity:0.409138;stroke-width:3.17612"
       inkscape:export-filename="/home/adulau/git/flowintel-logos/new/flowintel-400dpi.png"
       inkscape:export-xdpi="400"
       inkscape:export-ydpi="400" />
  </g>
</svg>
