<?xml version="1.0" standalone="no"?>
<!DOCTYPE svg PUBLIC "-//W3C//DTD SVG 20010904//EN"
 "http://www.w3.org/TR/2001/REC-SVG-20010904/DTD/svg10.dtd">
<svg version="1.0" xmlns="http://www.w3.org/2000/svg"
 width="437.000000pt" height="437.000000pt" viewBox="0 0 437.000000 437.000000"
 preserveAspectRatio="xMidYMid meet">
<metadata>
Created by potrace 1.14, written by Peter Selinger 2001-2017
</metadata>
<g transform="translate(0.000000,437.000000) scale(0.100000,-0.100000)"
fill="#000000" stroke="none">
<path d="M2388 4365 c-1 -1 -25 -5 -53 -9 -27 -3 -62 -8 -77 -11 -16 -3 -40
-7 -54 -10 -63 -10 -176 -51 -270 -96 -285 -135 -508 -400 -618 -731 -53 -159
-83 -323 -91 -508 -2 -41 -4 -80 -4 -86 -1 -7 -77 -10 -243 -10 l-243 1 -3
-223 -2 -222 240 0 c222 0 240 -1 240 -17 0 -10 1 -564 1 -1230 l0 -1213 269
0 270 0 0 1230 0 1230 675 0 675 0 0 -1230 0 -1230 270 0 270 0 -2 1452 -3
1453 -943 0 -943 0 6 90 c24 383 213 715 481 845 176 85 437 81 643 -12 100
-44 221 -131 308 -219 43 -43 81 -79 84 -79 3 0 21 21 40 48 18 26 39 54 46
62 15 19 176 241 185 255 4 6 -17 36 -45 67 -186 202 -418 331 -687 384 -73
14 -410 30 -422 19z"/>
</g>
</svg>
